<svg width="160" height="39" viewBox="0 0 160 39" fill="none" xmlns="http://www.w3.org/2000/svg">
<g clip-path="url(#clip0_102_62)">
<path d="M154.473 19.4222C155.76 20.89 156.786 22.9242 156.696 24.907C156.158 28.0766 154.71 31.8226 152.149 33.8578C147.16 37.13 141.159 37.1621 135.421 36.2014C133.239 35.6662 131.73 34.0416 130.5 32.2431C129.517 30.5986 129.282 29.0724 129.652 27.2036C130.262 24.8768 131.358 23.6155 133.38 22.3514C133.855 22.0778 134.331 21.8051 134.807 21.5333C135 21.4073 135.193 21.2813 135.392 21.1515C139.978 18.2149 149.704 15.7546 154.473 19.4222ZM143.861 25.0871C142.561 25.9201 141.244 26.4346 139.697 26.3625C138.752 26.3555 138.136 26.4633 137.345 27.0222C136.792 27.6628 136.708 27.9663 136.724 28.8167C136.977 29.7614 137.345 30.3299 138.164 30.875C140.653 31.7521 143.084 31.1232 145.385 30.0372C147.034 29.2294 148.513 28.3275 149.821 27.0222C150.064 25.8307 150.064 25.0129 149.609 23.8555C149.284 23.4485 149.066 23.2528 148.569 23.0861C146.673 22.946 145.363 24.0839 143.861 25.0871Z" fill="white"/>
<path d="M3.88816 10.7139C4.11263 10.7074 4.11263 10.7074 4.34164 10.7007C5.52379 10.6919 6.16137 10.953 7.02947 11.7257C7.13115 11.8403 7.23282 11.9549 7.33757 12.0729C7.44088 12.1848 7.54419 12.2966 7.65063 12.4119C8.37257 13.6061 8.41563 14.9904 8.46095 16.3479C8.57621 19.0742 8.57621 19.0742 9.8536 21.4344C10.6827 22.0695 11.5951 21.8429 12.5844 21.7444C13.1431 21.703 13.7018 21.6668 14.2611 21.6343C14.6523 21.6114 15.0432 21.5844 15.4338 21.5532C17.3451 21.4313 18.4699 22.0377 19.945 23.2362C22.328 25.3355 23.6796 28.2238 25.1265 30.9938C25.2557 31.2405 25.3849 31.4873 25.5181 31.7416C27.4823 35.5431 27.4823 35.5431 27.175 37.5778C26.721 38.5012 26.2486 39.1174 25.2719 39.4778C23.933 39.5763 22.7889 39.2673 21.7093 38.4717C20.7182 37.4445 20.1681 36.1086 19.5625 34.8333C19.2743 34.2427 18.9828 33.6537 18.6902 33.0653C18.6197 32.9232 18.5491 32.7811 18.4764 32.6347C17.67 31.0287 16.8602 29.5162 15.3333 28.5C14.5842 28.2558 14.2407 28.2177 13.5095 28.5132C12.0678 29.6874 11.8185 31.2862 11.4139 33.0154C11.0798 34.3084 10.7806 34.9684 9.62397 35.6778C8.84714 35.891 8.12644 35.7409 7.36401 35.4931C6.08839 34.3228 5.58277 32.3876 5.10405 30.7694C5.04219 30.5648 4.98033 30.3601 4.91659 30.1493C4.39877 28.3891 3.9871 26.6077 3.58419 24.8188C3.04 22.4057 2.38971 20.1811 1.38969 17.9163C-0.33053 14.0178 -0.33053 14.0178 0.108342 12.6667C1.12248 11.0638 2.03364 10.7272 3.88816 10.7139Z" fill="white"/>
<path d="M93.3615 17.7333C93.6203 17.8554 93.6203 17.8554 93.8843 17.9799C95.4555 18.7891 96.879 19.7946 97.5246 21.4938C97.9038 24.1439 96.8697 26.707 95.2943 28.815C93.3772 31.0573 89.8196 33.9081 86.8063 34.2C83.4113 34.4458 78.5225 34.2126 75.7493 31.9965C74.3017 30.6304 74.0044 28.811 73.8677 26.8862C73.8179 24.8669 74.2415 23.2862 75.599 21.7444C80.0647 17.8202 87.5943 14.9758 93.3615 17.7333ZM80.2833 26.4953C79.9593 27.0378 79.9593 27.0378 80.2643 27.6951C80.6868 28.3074 80.8533 28.4459 81.5198 28.7111C83.6353 29.0668 85.7029 28.9223 87.4836 27.6844C87.6788 27.5356 87.8739 27.3867 88.075 27.2333C88.3111 27.071 88.5479 26.9096 88.7854 26.7493C90.0247 25.9695 90.0247 25.9695 90.8124 24.7973C90.8316 23.9331 90.4562 23.5092 89.9781 22.8C87.3511 21.4886 81.8969 24.3121 80.2833 26.4953Z" fill="white"/>
<path d="M118.102 14.5667C120.193 15.8942 121.333 17.6816 122.371 19.884C122.469 20.0901 122.567 20.2961 122.667 20.5084C123.479 22.256 124.196 24.0351 124.882 25.8347C125.029 26.2202 125.029 26.2202 125.18 26.6134C126.512 30.1799 126.512 30.1799 126.124 31.2049C125.445 31.9703 124.953 32.4345 123.944 32.6958C123.049 32.7267 122.519 32.6662 121.697 32.3C120.601 31.2746 119.845 30.0781 119.173 28.7507C119.083 28.579 118.994 28.4074 118.902 28.2305C118.193 26.8402 117.574 25.4173 117.016 23.96C116.469 22.5779 115.766 21.3157 114.507 20.4778C113.806 20.2443 113.337 20.1553 112.604 20.2667C111.957 20.8265 111.519 21.434 111.084 22.1667C110.923 22.4345 110.923 22.4345 110.758 22.7076C110.343 23.5022 110.252 24.2012 110.226 25.0909C110.219 25.2882 110.212 25.4855 110.205 25.6888C110.192 26.0978 110.18 26.5068 110.169 26.9158C110.041 30.4254 110.041 30.4254 109.221 31.2445C108.072 31.6211 106.781 31.6319 105.652 31.1917C104.861 30.749 104.472 30.3692 104.215 29.4919C103.92 27.5779 103.769 25.6572 103.631 23.7267C103.591 23.1536 103.548 22.5808 103.505 22.0079C103.478 21.6395 103.451 21.271 103.424 20.9025C103.405 20.6488 103.405 20.6488 103.386 20.3899C103.175 17.3934 103.175 17.3934 103.934 16.2556C104.517 15.6879 104.917 15.4172 105.743 15.3996C106.621 15.4748 107.473 15.6107 108.336 15.7888C109.389 15.918 110.12 15.515 111.031 15.0285C113.524 13.7448 115.526 13.2151 118.102 14.5667Z" fill="white"/>
<path d="M48.7437 16.2556C50.2182 16.6383 51.2077 17.5319 52.2832 18.5728C52.7155 18.9589 53.0776 19.1971 53.6073 19.4222C53.6975 19.3406 53.7877 19.2589 53.8807 19.1748C55.6167 17.7312 57.694 17.1606 59.9378 17.241C61.3294 17.3916 62.9856 17.587 64.1802 18.3667C65.4203 19.9952 66.283 21.7955 66.0833 23.8556C65.7063 24.9429 65.21 25.4526 64.1802 25.9667C63.4665 26.1118 63.4665 26.1118 62.7 25.9667C61.8839 25.4057 61.2045 24.7417 60.5986 23.9611C60.0686 23.5763 59.8784 23.6076 59.2374 23.6576C58.3964 23.796 57.7099 24.016 56.9906 24.4889C56.4387 25.3914 56.4175 26.2037 56.5677 27.2333C56.9589 28.4614 57.4784 29.5868 58.2065 30.6507C58.8809 31.6819 59.0277 32.6697 58.7921 33.8759C58.5168 34.813 58.3053 35.4025 57.4135 35.8889C56.728 35.973 56.728 35.973 55.9598 35.9681C55.7074 35.9697 55.4549 35.9713 55.1949 35.973C54.3186 35.8736 53.904 35.7751 53.1844 35.2556C52.0312 33.7794 51.2766 32.0906 50.5279 30.3868C49.5106 28.1229 48.3927 25.9443 47.1858 23.7772C45.0793 19.972 45.0793 19.972 45.6933 17.7078C46.2996 16.1673 47.2564 16.0738 48.7437 16.2556Z" fill="white"/>
<path d="M36.7567 18.0764C38.1089 19.2694 38.1465 20.8138 38.3162 22.5097C38.3425 22.767 38.3689 23.0243 38.396 23.2894C38.5753 25.2015 38.6667 27.1077 38.6863 29.0278C38.691 29.2794 38.6956 29.531 38.7005 29.7903C38.6996 30.1411 38.6996 30.1411 38.6987 30.499C38.6993 30.8074 38.6993 30.8074 38.6999 31.122C38.5637 31.821 38.2916 32.0653 37.7479 32.5111C36.8993 32.9818 35.9472 33.1988 34.999 32.9333C33.1704 31.4638 33.0205 28.7275 32.7588 26.5769C32.0689 19.9801 32.0689 19.9801 32.8844 18.1556C34.1546 17.5976 35.496 17.459 36.7567 18.0764Z" fill="white"/>
<path d="M158.491 1.9C159.033 2.21669 159.525 2.5105 159.971 2.95556C160.202 4.97449 159.695 6.75161 158.742 8.52361C157.363 10.175 155.386 11.497 153.254 11.9451C152.491 11.9791 152.027 11.8883 151.407 11.4396C150.824 10.5918 150.748 9.87323 150.878 8.86667C151.731 7.3736 153.115 6.12629 154.288 4.87617C154.899 4.22375 155.484 3.5524 156.059 2.86814C156.828 2.05575 157.352 1.74079 158.491 1.9Z" fill="white"/>
<path d="M131.847 -0.211111C132.333 0.276259 132.333 0.276259 132.759 0.936805C132.837 1.05634 132.915 1.17588 132.996 1.29903C133.76 2.49224 134.442 3.73694 135.116 4.98281C135.577 5.83465 136.055 6.63329 136.631 7.41528C137.242 8.30086 137.308 8.85699 137.133 9.92222C136.803 10.6611 136.803 10.6611 136.288 11.1889C135.521 11.369 135.055 11.3117 134.348 10.9613C131.959 9.46424 130.204 7.43775 129.547 4.67083C128.878 1.0496 128.878 1.0496 129.732 -0.211111C130.546 -0.482056 131.016 -0.419993 131.847 -0.211111Z" fill="white"/>
<path d="M144.204 -0.923615C144.511 -0.932595 144.511 -0.932595 144.824 -0.941757C145.38 -0.844448 145.38 -0.844448 145.744 -0.536028C146.623 1.20732 146.51 3.16092 146.504 5.06362C146.504 5.55746 146.509 6.05104 146.514 6.54485C146.514 6.86056 146.515 7.17626 146.514 7.49197C146.516 7.63865 146.518 7.78534 146.52 7.93647C146.514 8.57202 146.468 9.02043 146.166 9.58509C145.68 10.0363 145.2 10.1312 144.548 10.1803C143.958 10.1168 143.565 9.84543 143.123 9.46041C142.338 8.38839 142.128 7.38471 142.132 6.07604C142.131 5.93637 142.131 5.79671 142.131 5.65281C142.132 5.35973 142.134 5.06666 142.137 4.7736C142.142 4.32886 142.142 3.88439 142.14 3.43962C142.158 -0.896489 142.158 -0.896489 144.204 -0.923615Z" fill="white"/>
<path d="M35.2104 6.54445C35.902 6.83258 36.3739 7.28384 36.9021 7.81111C37.3381 9.24753 37.2342 10.8606 36.6906 12.2444C36.202 12.8424 35.9473 13.0548 35.2104 13.3C33.8973 13.4111 32.8942 13.2766 31.8271 12.4556C31.1071 11.3883 31.123 10.4906 31.2811 9.23116C31.7732 6.92953 32.9017 6.26786 35.2104 6.54445Z" fill="white"/>
</g>
<defs>
<clipPath id="clip0_102_62">
<rect width="160" height="39" fill="white"/>
</clipPath>
</defs>
</svg>
