<svg width="40" height="40" viewBox="0 0 40 40" fill="none" xmlns="http://www.w3.org/2000/svg">
<mask id="mask0_24_179" style="mask-type:alpha" maskUnits="userSpaceOnUse" x="0" y="0" width="40" height="40">
<rect width="40" height="40" fill="#D9D9D9"/>
</mask>
<g mask="url(#mask0_24_179)">
<path d="M8.01337 37.3263C6.98726 37.3263 6.11865 36.9706 5.40754 36.2592C4.69615 35.5481 4.34045 34.6794 4.34045 33.6533V12.9162C4.34045 11.8857 4.69615 11.0133 5.40754 10.2992C6.11865 9.58472 6.98726 9.2275 8.01337 9.2275H11.6542C11.6542 6.92556 12.4453 4.95917 14.0275 3.32833C15.6098 1.69722 17.5531 0.881664 19.8575 0.881664C22.2161 0.881664 24.2206 1.68708 25.8709 3.29792C27.5209 4.90847 28.3459 6.885 28.3459 9.2275H31.9867C33.0173 9.2275 33.8896 9.58472 34.6038 10.2992C35.318 11.0133 35.675 11.8857 35.675 12.9162V33.6533C35.675 34.6794 35.318 35.5481 34.6038 36.2592C33.8896 36.9706 33.0173 37.3263 31.9867 37.3263H8.01337ZM8.01337 33.6533H31.9867V12.9162H8.01337V33.6533ZM19.9963 23.2067C22.3193 23.2067 24.3149 22.3735 25.983 20.7071C27.651 19.0407 28.485 17.0456 28.485 14.7217H24.8121C24.8121 16.0461 24.3439 17.1767 23.4075 18.1133C22.4709 19.0497 21.335 19.5179 20 19.5179C18.665 19.5179 17.5292 19.0494 16.5925 18.1125C15.6561 17.1756 15.188 16.0453 15.188 14.7217H11.515C11.515 17.0422 12.3478 19.0365 14.0134 20.7046C15.6789 22.3726 17.6732 23.2067 19.9963 23.2067ZM15.3267 9.2275H24.6734C24.6734 7.90306 24.2282 6.79305 23.338 5.8975C22.4477 5.00194 21.335 4.55416 20 4.55416C18.665 4.55416 17.5524 5.00111 16.6621 5.895C15.7718 6.78889 15.3267 7.89972 15.3267 9.2275Z" fill="white"/>
</g>
</svg>
